<?xml version="1.0" encoding="utf-8"?>
<!-- Generator: Adobe Illustrator 16.2.0, SVG Export Plug-In . SVG Version: 6.00 Build 0)  -->
<!DOCTYPE svg PUBLIC "-//W3C//DTD SVG 1.1//EN" "http://www.w3.org/Graphics/SVG/1.1/DTD/svg11.dtd">
<svg version="1.1" id="Capa_1" xmlns="http://www.w3.org/2000/svg" xmlns:xlink="http://www.w3.org/1999/xlink" x="0px" y="0px"
	 width="64px" height="64px" viewBox="0 0 64 64" enable-background="new 0 0 64 64" xml:space="preserve">
<path fill="#EA8681" d="M53.824,0.385c-0.512-0.513-1.352-0.513-1.864,0L32.933,19.412c-0.513,0.513-1.352,0.513-1.865,0
	L12.041,0.385c-0.513-0.513-1.352-0.513-1.865,0l-9.791,9.791c-0.513,0.513-0.513,1.352,0,1.865l19.027,19.027
	c0.513,0.513,0.513,1.352,0,1.865L0.385,51.96c-0.513,0.513-0.513,1.353,0,1.864l9.791,9.791c0.513,0.513,1.352,0.513,1.865,0
	l19.027-19.027c0.513-0.513,1.352-0.513,1.865,0l19.026,19.027c0.514,0.513,1.353,0.513,1.865,0l9.791-9.791
	c0.513-0.513,0.513-1.352,0-1.865L44.588,32.933c-0.513-0.513-0.513-1.352,0-1.865l19.027-19.027c0.513-0.513,0.513-1.352,0-1.865
	L53.824,0.385z"/>
</svg>
